<?xml version="1.0" standalone="no"?>
<!DOCTYPE svg PUBLIC "-//W3C//DTD SVG 20010904//EN"
 "http://www.w3.org/TR/2001/REC-SVG-20010904/DTD/svg10.dtd">
<svg version="1.0" xmlns="http://www.w3.org/2000/svg"
 width="700.000000pt" height="700.000000pt" viewBox="0 0 700.000000 700.000000"
 preserveAspectRatio="xMidYMid meet">
<metadata>
Created by potrace 1.14, written by Peter Selinger 2001-2017
</metadata>
<g transform="translate(0.000000,700.000000) scale(0.100000,-0.100000)"
fill="#000000" stroke="none">
<path d="M3389 6555 c-3 -2 -23 -7 -45 -11 -43 -6 -151 -47 -199 -75 -76 -43
-305 -174 -345 -197 -25 -14 -180 -103 -345 -197 -165 -94 -320 -183 -345
-197 -25 -14 -136 -77 -248 -141 -111 -64 -219 -126 -240 -137 -20 -11 -44
-25 -52 -30 -13 -9 -53 -31 -157 -91 -38 -22 -55 -31 -215 -122 -172 -98 -213
-129 -299 -224 -45 -49 -109 -165 -137 -248 l-27 -80 0 -1295 c0 -1455 -6
-1345 76 -1506 46 -91 109 -170 186 -233 28 -23 438 -263 910 -533 472 -270
872 -498 888 -508 475 -272 520 -290 715 -291 161 -1 237 29 594 233 114 66
222 128 240 137 17 10 78 45 136 78 58 33 222 126 365 208 143 81 272 156 287
166 15 11 29 19 31 19 4 0 97 53 552 313 77 44 156 89 175 99 122 68 238 189
300 313 81 161 75 46 77 1475 3 1371 4 1315 -48 1455 -24 66 -103 186 -155
239 -74 74 -154 125 -525 334 -19 10 -178 101 -354 202 -176 101 -340 194
-365 208 -25 13 -49 28 -55 32 -5 4 -30 18 -55 32 -25 14 -157 89 -295 168
-137 79 -266 152 -285 163 -19 10 -64 36 -100 57 -279 162 -327 180 -511 186
-69 2 -128 2 -130 -1z"/>
</g>
</svg>
